<?xml version="1.0" encoding="UTF-8" standalone="no"?>
<!DOCTYPE svg PUBLIC "-//W3C//DTD SVG 1.1//EN"
 "http://www.w3.org/Graphics/SVG/1.1/DTD/svg11.dtd">
<!-- Generated by graphviz version 6.0.1 (20220911.1526)
 -->
<!-- Pages: 1 -->
<svg width="1216pt" height="260pt"
 viewBox="0.00 0.00 1216.04 260.00" xmlns="http://www.w3.org/2000/svg" xmlns:xlink="http://www.w3.org/1999/xlink">
<g id="graph0" class="graph" transform="scale(1 1) rotate(0) translate(4 256)">
<polygon fill="white" stroke="none" points="-4,4 -4,-256 1212.04,-256 1212.04,4 -4,4"/>
<!-- [root] aws_s3_bucket.www (expand) -->
<g id="node1" class="node">
<title>[root] aws_s3_bucket.www (expand)</title>
<polygon fill="none" stroke="black" points="596.77,-108 464.77,-108 464.77,-72 596.77,-72 596.77,-108"/>
<text text-anchor="middle" x="530.77" y="-86.3" font-family="Times,serif" font-size="14.00">aws_s3_bucket.www</text>
</g>
<!-- [root] provider[&quot;registry.terraform.io/hashicorp/aws&quot;] -->
<g id="node3" class="node">
<title>[root] provider[&quot;registry.terraform.io/hashicorp/aws&quot;]</title>
<polygon fill="none" stroke="black" points="252.77,-36 0.23,-18 252.77,0 505.3,-18 252.77,-36"/>
<text text-anchor="middle" x="252.77" y="-14.3" font-family="Times,serif" font-size="14.00">provider[&quot;registry.terraform.io/hashicorp/aws&quot;]</text>
</g>
<!-- [root] aws_s3_bucket.www (expand)&#45;&gt;[root] provider[&quot;registry.terraform.io/hashicorp/aws&quot;] -->
<g id="edge1" class="edge">
<title>[root] aws_s3_bucket.www (expand)&#45;&gt;[root] provider[&quot;registry.terraform.io/hashicorp/aws&quot;]</title>
<path fill="none" stroke="black" d="M464.53,-72.32C419.29,-60.93 359.73,-45.93 315.3,-34.75"/>
<polygon fill="black" stroke="black" points="316.05,-31.32 305.49,-32.28 314.34,-38.11 316.05,-31.32"/>
</g>
<!-- [root] var.www_domain_name -->
<g id="node6" class="node">
<title>[root] var.www_domain_name</title>
<polygon fill="none" stroke="black" points="668.27,-36 523.27,-36 523.27,0 674.27,0 674.27,-30 668.27,-36"/>
<polyline fill="none" stroke="black" points="668.27,-36 668.27,-30"/>
<polyline fill="none" stroke="black" points="674.27,-30 668.27,-30"/>
<text text-anchor="middle" x="598.77" y="-14.3" font-family="Times,serif" font-size="14.00">var.www_domain_name</text>
</g>
<!-- [root] aws_s3_bucket.www (expand)&#45;&gt;[root] var.www_domain_name -->
<g id="edge2" class="edge">
<title>[root] aws_s3_bucket.www (expand)&#45;&gt;[root] var.www_domain_name</title>
<path fill="none" stroke="black" d="M547.58,-71.7C555.89,-63.14 566.07,-52.66 575.16,-43.3"/>
<polygon fill="black" stroke="black" points="577.7,-45.72 582.15,-36.1 572.67,-40.84 577.7,-45.72"/>
</g>
<!-- [root] data.terraform_remote_state.root (expand) -->
<g id="node2" class="node">
<title>[root] data.terraform_remote_state.root (expand)</title>
<polygon fill="none" stroke="black" points="1082.27,-108 885.27,-108 885.27,-72 1082.27,-72 1082.27,-108"/>
<text text-anchor="middle" x="983.77" y="-86.3" font-family="Times,serif" font-size="14.00">data.terraform_remote_state.root</text>
</g>
<!-- [root] provider[&quot;terraform.io/builtin/terraform&quot;] -->
<g id="node4" class="node">
<title>[root] provider[&quot;terraform.io/builtin/terraform&quot;]</title>
<polygon fill="none" stroke="black" points="983.77,-36 759.72,-18 983.77,0 1207.82,-18 983.77,-36"/>
<text text-anchor="middle" x="983.77" y="-14.3" font-family="Times,serif" font-size="14.00">provider[&quot;terraform.io/builtin/terraform&quot;]</text>
</g>
<!-- [root] data.terraform_remote_state.root (expand)&#45;&gt;[root] provider[&quot;terraform.io/builtin/terraform&quot;] -->
<g id="edge3" class="edge">
<title>[root] data.terraform_remote_state.root (expand)&#45;&gt;[root] provider[&quot;terraform.io/builtin/terraform&quot;]</title>
<path fill="none" stroke="black" d="M983.77,-71.7C983.77,-63.98 983.77,-54.71 983.77,-46.11"/>
<polygon fill="black" stroke="black" points="987.27,-46.1 983.77,-36.1 980.27,-46.1 987.27,-46.1"/>
</g>
<!-- [root] var.root_domain_name -->
<g id="node5" class="node">
<title>[root] var.root_domain_name</title>
<polygon fill="none" stroke="black" points="279.27,-180 142.27,-180 142.27,-144 285.27,-144 285.27,-174 279.27,-180"/>
<polyline fill="none" stroke="black" points="279.27,-180 279.27,-174"/>
<polyline fill="none" stroke="black" points="285.27,-174 279.27,-174"/>
<text text-anchor="middle" x="213.77" y="-158.3" font-family="Times,serif" font-size="14.00">var.root_domain_name</text>
</g>
<!-- [root] provider[&quot;registry.terraform.io/hashicorp/aws&quot;] (close) -->
<g id="node7" class="node">
<title>[root] provider[&quot;registry.terraform.io/hashicorp/aws&quot;] (close)</title>
<ellipse fill="none" stroke="black" cx="530.77" cy="-162" rx="227.46" ry="18"/>
<text text-anchor="middle" x="530.77" y="-158.3" font-family="Times,serif" font-size="14.00">[root] provider[&quot;registry.terraform.io/hashicorp/aws&quot;] (close)</text>
</g>
<!-- [root] provider[&quot;registry.terraform.io/hashicorp/aws&quot;] (close)&#45;&gt;[root] aws_s3_bucket.www (expand) -->
<g id="edge4" class="edge">
<title>[root] provider[&quot;registry.terraform.io/hashicorp/aws&quot;] (close)&#45;&gt;[root] aws_s3_bucket.www (expand)</title>
<path fill="none" stroke="black" d="M530.77,-143.7C530.77,-135.98 530.77,-126.71 530.77,-118.11"/>
<polygon fill="black" stroke="black" points="534.27,-118.1 530.77,-108.1 527.27,-118.1 534.27,-118.1"/>
</g>
<!-- [root] provider[&quot;terraform.io/builtin/terraform&quot;] (close) -->
<g id="node8" class="node">
<title>[root] provider[&quot;terraform.io/builtin/terraform&quot;] (close)</title>
<ellipse fill="none" stroke="black" cx="983.77" cy="-162" rx="207.16" ry="18"/>
<text text-anchor="middle" x="983.77" y="-158.3" font-family="Times,serif" font-size="14.00">[root] provider[&quot;terraform.io/builtin/terraform&quot;] (close)</text>
</g>
<!-- [root] provider[&quot;terraform.io/builtin/terraform&quot;] (close)&#45;&gt;[root] data.terraform_remote_state.root (expand) -->
<g id="edge5" class="edge">
<title>[root] provider[&quot;terraform.io/builtin/terraform&quot;] (close)&#45;&gt;[root] data.terraform_remote_state.root (expand)</title>
<path fill="none" stroke="black" d="M983.77,-143.7C983.77,-135.98 983.77,-126.71 983.77,-118.11"/>
<polygon fill="black" stroke="black" points="987.27,-118.1 983.77,-108.1 980.27,-118.1 987.27,-118.1"/>
</g>
<!-- [root] root -->
<g id="node9" class="node">
<title>[root] root</title>
<ellipse fill="none" stroke="black" cx="530.77" cy="-234" rx="47.39" ry="18"/>
<text text-anchor="middle" x="530.77" y="-230.3" font-family="Times,serif" font-size="14.00">[root] root</text>
</g>
<!-- [root] root&#45;&gt;[root] var.root_domain_name -->
<g id="edge8" class="edge">
<title>[root] root&#45;&gt;[root] var.root_domain_name</title>
<path fill="none" stroke="black" d="M490.94,-224.21C442.09,-213.42 358.04,-194.86 295.27,-181"/>
<polygon fill="black" stroke="black" points="295.91,-177.55 285.39,-178.82 294.4,-184.39 295.91,-177.55"/>
</g>
<!-- [root] root&#45;&gt;[root] provider[&quot;registry.terraform.io/hashicorp/aws&quot;] (close) -->
<g id="edge6" class="edge">
<title>[root] root&#45;&gt;[root] provider[&quot;registry.terraform.io/hashicorp/aws&quot;] (close)</title>
<path fill="none" stroke="black" d="M530.77,-215.7C530.77,-207.98 530.77,-198.71 530.77,-190.11"/>
<polygon fill="black" stroke="black" points="534.27,-190.1 530.77,-180.1 527.27,-190.1 534.27,-190.1"/>
</g>
<!-- [root] root&#45;&gt;[root] provider[&quot;terraform.io/builtin/terraform&quot;] (close) -->
<g id="edge7" class="edge">
<title>[root] root&#45;&gt;[root] provider[&quot;terraform.io/builtin/terraform&quot;] (close)</title>
<path fill="none" stroke="black" d="M573.79,-226.35C642.8,-215.69 780.26,-194.45 876.92,-179.51"/>
<polygon fill="black" stroke="black" points="877.68,-182.93 887.03,-177.95 876.61,-176.02 877.68,-182.93"/>
</g>
</g>
</svg>
