<?xml version="1.0" encoding="UTF-8" standalone="no"?>
<!DOCTYPE svg PUBLIC "-//W3C//DTD SVG 1.1//EN"
 "http://www.w3.org/Graphics/SVG/1.1/DTD/svg11.dtd">
<!-- Generated by graphviz version 2.44.1 (20200629.0846)
 -->
<!-- Pages: 1 -->
<svg width="1602pt" height="476pt"
 viewBox="0.00 0.00 1601.83 476.00" xmlns="http://www.w3.org/2000/svg" xmlns:xlink="http://www.w3.org/1999/xlink">
<g id="graph0" class="graph" transform="scale(1 1) rotate(0) translate(4 472)">
<polygon fill="white" stroke="transparent" points="-4,4 -4,-472 1597.83,-472 1597.83,4 -4,4"/>
<!-- [root] aws_cloudfront_distribution.www_distribution (expand) -->
<g id="node1" class="node">
<title>[root] aws_cloudfront_distribution.www_distribution (expand)</title>
<polygon fill="none" stroke="black" points="890.5,-180 618.5,-180 618.5,-144 890.5,-144 890.5,-180"/>
<text text-anchor="middle" x="754.5" y="-158.3" font-family="Times,serif" font-size="14.00">aws_cloudfront_distribution.www_distribution</text>
</g>
<!-- [root] aws_s3_bucket.www (expand) -->
<g id="node3" class="node">
<title>[root] aws_s3_bucket.www (expand)</title>
<polygon fill="none" stroke="black" points="486.5,-108 354.5,-108 354.5,-72 486.5,-72 486.5,-108"/>
<text text-anchor="middle" x="420.5" y="-86.3" font-family="Times,serif" font-size="14.00">aws_s3_bucket.www</text>
</g>
<!-- [root] aws_cloudfront_distribution.www_distribution (expand)&#45;&gt;[root] aws_s3_bucket.www (expand) -->
<g id="edge1" class="edge">
<title>[root] aws_cloudfront_distribution.www_distribution (expand)&#45;&gt;[root] aws_s3_bucket.www (expand)</title>
<path fill="none" stroke="black" d="M673.22,-143.97C619.44,-132.69 549.37,-118.01 496.66,-106.96"/>
<polygon fill="black" stroke="black" points="497.2,-103.5 486.7,-104.87 495.77,-110.35 497.2,-103.5"/>
</g>
<!-- [root] data.terraform_remote_state.root (expand) -->
<g id="node4" class="node">
<title>[root] data.terraform_remote_state.root (expand)</title>
<polygon fill="none" stroke="black" points="1016,-108 819,-108 819,-72 1016,-72 1016,-108"/>
<text text-anchor="middle" x="917.5" y="-86.3" font-family="Times,serif" font-size="14.00">data.terraform_remote_state.root</text>
</g>
<!-- [root] aws_cloudfront_distribution.www_distribution (expand)&#45;&gt;[root] data.terraform_remote_state.root (expand) -->
<g id="edge2" class="edge">
<title>[root] aws_cloudfront_distribution.www_distribution (expand)&#45;&gt;[root] data.terraform_remote_state.root (expand)</title>
<path fill="none" stroke="black" d="M794.37,-143.88C816.66,-134.31 844.62,-122.3 868.26,-112.15"/>
<polygon fill="black" stroke="black" points="869.95,-115.23 877.76,-108.07 867.19,-108.8 869.95,-115.23"/>
</g>
<!-- [root] aws_route53_record.www (expand) -->
<g id="node2" class="node">
<title>[root] aws_route53_record.www (expand)</title>
<polygon fill="none" stroke="black" points="1161.5,-252 1001.5,-252 1001.5,-216 1161.5,-216 1161.5,-252"/>
<text text-anchor="middle" x="1081.5" y="-230.3" font-family="Times,serif" font-size="14.00">aws_route53_record.www</text>
</g>
<!-- [root] aws_route53_record.www (expand)&#45;&gt;[root] aws_cloudfront_distribution.www_distribution (expand) -->
<g id="edge3" class="edge">
<title>[root] aws_route53_record.www (expand)&#45;&gt;[root] aws_cloudfront_distribution.www_distribution (expand)</title>
<path fill="none" stroke="black" d="M1001.92,-215.97C954.26,-205.76 893.54,-192.76 844.18,-182.2"/>
<polygon fill="black" stroke="black" points="844.66,-178.72 834.15,-180.05 843.19,-185.57 844.66,-178.72"/>
</g>
<!-- [root] provider[&quot;registry.terraform.io/hashicorp/aws&quot;] -->
<g id="node5" class="node">
<title>[root] provider[&quot;registry.terraform.io/hashicorp/aws&quot;]</title>
<polygon fill="none" stroke="black" points="421.5,-36 168.96,-18 421.5,0 674.04,-18 421.5,-36"/>
<text text-anchor="middle" x="421.5" y="-14.3" font-family="Times,serif" font-size="14.00">provider[&quot;registry.terraform.io/hashicorp/aws&quot;]</text>
</g>
<!-- [root] aws_s3_bucket.www (expand)&#45;&gt;[root] provider[&quot;registry.terraform.io/hashicorp/aws&quot;] -->
<g id="edge4" class="edge">
<title>[root] aws_s3_bucket.www (expand)&#45;&gt;[root] provider[&quot;registry.terraform.io/hashicorp/aws&quot;]</title>
<path fill="none" stroke="black" d="M420.75,-71.7C420.86,-63.98 420.99,-54.71 421.11,-46.11"/>
<polygon fill="black" stroke="black" points="424.61,-46.15 421.26,-36.1 417.61,-46.05 424.61,-46.15"/>
</g>
<!-- [root] var.www_domain_name -->
<g id="node8" class="node">
<title>[root] var.www_domain_name</title>
<polygon fill="none" stroke="black" points="145,-36 0,-36 0,0 151,0 151,-30 145,-36"/>
<polyline fill="none" stroke="black" points="145,-36 145,-30 "/>
<polyline fill="none" stroke="black" points="151,-30 145,-30 "/>
<text text-anchor="middle" x="75.5" y="-14.3" font-family="Times,serif" font-size="14.00">var.www_domain_name</text>
</g>
<!-- [root] aws_s3_bucket.www (expand)&#45;&gt;[root] var.www_domain_name -->
<g id="edge5" class="edge">
<title>[root] aws_s3_bucket.www (expand)&#45;&gt;[root] var.www_domain_name</title>
<path fill="none" stroke="black" d="M354.39,-75.59C299.55,-64.46 221.17,-48.56 161.46,-36.44"/>
<polygon fill="black" stroke="black" points="161.79,-32.94 151.3,-34.38 160.4,-39.8 161.79,-32.94"/>
</g>
<!-- [root] provider[&quot;terraform.io/builtin/terraform&quot;] -->
<g id="node6" class="node">
<title>[root] provider[&quot;terraform.io/builtin/terraform&quot;]</title>
<polygon fill="none" stroke="black" points="917.5,-36 693.45,-18 917.5,0 1141.55,-18 917.5,-36"/>
<text text-anchor="middle" x="917.5" y="-14.3" font-family="Times,serif" font-size="14.00">provider[&quot;terraform.io/builtin/terraform&quot;]</text>
</g>
<!-- [root] data.terraform_remote_state.root (expand)&#45;&gt;[root] provider[&quot;terraform.io/builtin/terraform&quot;] -->
<g id="edge6" class="edge">
<title>[root] data.terraform_remote_state.root (expand)&#45;&gt;[root] provider[&quot;terraform.io/builtin/terraform&quot;]</title>
<path fill="none" stroke="black" d="M917.5,-71.7C917.5,-63.98 917.5,-54.71 917.5,-46.11"/>
<polygon fill="black" stroke="black" points="921,-46.1 917.5,-36.1 914,-46.1 921,-46.1"/>
</g>
<!-- [root] var.root_domain_name -->
<g id="node7" class="node">
<title>[root] var.root_domain_name</title>
<polygon fill="none" stroke="black" points="962,-324 825,-324 825,-288 968,-288 968,-318 962,-324"/>
<polyline fill="none" stroke="black" points="962,-324 962,-318 "/>
<polyline fill="none" stroke="black" points="968,-318 962,-318 "/>
<text text-anchor="middle" x="896.5" y="-302.3" font-family="Times,serif" font-size="14.00">var.root_domain_name</text>
</g>
<!-- [root] meta.count&#45;boundary (EachMode fixup) -->
<g id="node9" class="node">
<title>[root] meta.count&#45;boundary (EachMode fixup)</title>
<ellipse fill="none" stroke="black" cx="687.5" cy="-378" rx="176.27" ry="18"/>
<text text-anchor="middle" x="687.5" y="-374.3" font-family="Times,serif" font-size="14.00">[root] meta.count&#45;boundary (EachMode fixup)</text>
</g>
<!-- [root] meta.count&#45;boundary (EachMode fixup)&#45;&gt;[root] var.root_domain_name -->
<g id="edge11" class="edge">
<title>[root] meta.count&#45;boundary (EachMode fixup)&#45;&gt;[root] var.root_domain_name</title>
<path fill="none" stroke="black" d="M736.24,-360.68C765.97,-350.72 804.22,-337.91 835.9,-327.3"/>
<polygon fill="black" stroke="black" points="837.13,-330.58 845.5,-324.08 834.9,-323.94 837.13,-330.58"/>
</g>
<!-- [root] output.cloudfront_url (expand) -->
<g id="node10" class="node">
<title>[root] output.cloudfront_url (expand)</title>
<ellipse fill="none" stroke="black" cx="584.5" cy="-234" rx="142.17" ry="18"/>
<text text-anchor="middle" x="584.5" y="-230.3" font-family="Times,serif" font-size="14.00">[root] output.cloudfront_url (expand)</text>
</g>
<!-- [root] meta.count&#45;boundary (EachMode fixup)&#45;&gt;[root] output.cloudfront_url (expand) -->
<g id="edge7" class="edge">
<title>[root] meta.count&#45;boundary (EachMode fixup)&#45;&gt;[root] output.cloudfront_url (expand)</title>
<path fill="none" stroke="black" d="M582.09,-363.56C534.56,-355.12 485.86,-342.31 471.5,-324 461.63,-311.41 462.92,-301.5 471.5,-288 481.02,-273.02 496.02,-262.2 512.02,-254.41"/>
<polygon fill="black" stroke="black" points="513.81,-257.44 521.52,-250.16 510.96,-251.05 513.81,-257.44"/>
</g>
<!-- [root] output.cloudfront_www_id (expand) -->
<g id="node11" class="node">
<title>[root] output.cloudfront_www_id (expand)</title>
<ellipse fill="none" stroke="black" cx="643.5" cy="-306" rx="163.27" ry="18"/>
<text text-anchor="middle" x="643.5" y="-302.3" font-family="Times,serif" font-size="14.00">[root] output.cloudfront_www_id (expand)</text>
</g>
<!-- [root] meta.count&#45;boundary (EachMode fixup)&#45;&gt;[root] output.cloudfront_www_id (expand) -->
<g id="edge8" class="edge">
<title>[root] meta.count&#45;boundary (EachMode fixup)&#45;&gt;[root] output.cloudfront_www_id (expand)</title>
<path fill="none" stroke="black" d="M676.62,-359.7C671.51,-351.56 665.3,-341.69 659.66,-332.7"/>
<polygon fill="black" stroke="black" points="662.54,-330.71 654.25,-324.1 656.61,-334.43 662.54,-330.71"/>
</g>
<!-- [root] output.s3_website_url (expand) -->
<g id="node12" class="node">
<title>[root] output.s3_website_url (expand)</title>
<ellipse fill="none" stroke="black" cx="418.5" cy="-162" rx="144.87" ry="18"/>
<text text-anchor="middle" x="418.5" y="-158.3" font-family="Times,serif" font-size="14.00">[root] output.s3_website_url (expand)</text>
</g>
<!-- [root] meta.count&#45;boundary (EachMode fixup)&#45;&gt;[root] output.s3_website_url (expand) -->
<g id="edge9" class="edge">
<title>[root] meta.count&#45;boundary (EachMode fixup)&#45;&gt;[root] output.s3_website_url (expand)</title>
<path fill="none" stroke="black" d="M588.5,-363.08C537.03,-354.06 480.9,-340.85 461.5,-324 423,-290.56 417.13,-226.84 417.21,-190.39"/>
<polygon fill="black" stroke="black" points="420.72,-190.08 417.4,-180.02 413.72,-189.96 420.72,-190.08"/>
</g>
<!-- [root] output.site_url (expand) -->
<g id="node13" class="node">
<title>[root] output.site_url (expand)</title>
<ellipse fill="none" stroke="black" cx="1104.5" cy="-306" rx="118.08" ry="18"/>
<text text-anchor="middle" x="1104.5" y="-302.3" font-family="Times,serif" font-size="14.00">[root] output.site_url (expand)</text>
</g>
<!-- [root] meta.count&#45;boundary (EachMode fixup)&#45;&gt;[root] output.site_url (expand) -->
<g id="edge10" class="edge">
<title>[root] meta.count&#45;boundary (EachMode fixup)&#45;&gt;[root] output.site_url (expand)</title>
<path fill="none" stroke="black" d="M774.92,-362.33C846.28,-350.35 946.6,-333.51 1017.77,-321.56"/>
<polygon fill="black" stroke="black" points="1018.77,-324.94 1028.06,-319.83 1017.62,-318.04 1018.77,-324.94"/>
</g>
<!-- [root] output.cloudfront_url (expand)&#45;&gt;[root] aws_cloudfront_distribution.www_distribution (expand) -->
<g id="edge12" class="edge">
<title>[root] output.cloudfront_url (expand)&#45;&gt;[root] aws_cloudfront_distribution.www_distribution (expand)</title>
<path fill="none" stroke="black" d="M624.36,-216.59C648.03,-206.84 678.28,-194.39 703.65,-183.94"/>
<polygon fill="black" stroke="black" points="705.2,-187.08 713.12,-180.04 702.54,-180.61 705.2,-187.08"/>
</g>
<!-- [root] output.cloudfront_www_id (expand)&#45;&gt;[root] aws_cloudfront_distribution.www_distribution (expand) -->
<g id="edge13" class="edge">
<title>[root] output.cloudfront_www_id (expand)&#45;&gt;[root] aws_cloudfront_distribution.www_distribution (expand)</title>
<path fill="none" stroke="black" d="M688.45,-288.48C705.58,-280.04 723.78,-268.09 735.5,-252 748.54,-234.08 753,-209.09 754.36,-190.14"/>
<polygon fill="black" stroke="black" points="757.86,-190.21 754.84,-180.06 750.87,-189.88 757.86,-190.21"/>
</g>
<!-- [root] output.s3_website_url (expand)&#45;&gt;[root] aws_s3_bucket.www (expand) -->
<g id="edge14" class="edge">
<title>[root] output.s3_website_url (expand)&#45;&gt;[root] aws_s3_bucket.www (expand)</title>
<path fill="none" stroke="black" d="M418.99,-143.7C419.21,-135.98 419.48,-126.71 419.73,-118.11"/>
<polygon fill="black" stroke="black" points="423.22,-118.2 420.01,-108.1 416.23,-118 423.22,-118.2"/>
</g>
<!-- [root] output.site_url (expand)&#45;&gt;[root] aws_route53_record.www (expand) -->
<g id="edge15" class="edge">
<title>[root] output.site_url (expand)&#45;&gt;[root] aws_route53_record.www (expand)</title>
<path fill="none" stroke="black" d="M1098.81,-287.7C1096.25,-279.9 1093.17,-270.51 1090.32,-261.83"/>
<polygon fill="black" stroke="black" points="1093.57,-260.51 1087.12,-252.1 1086.92,-262.7 1093.57,-260.51"/>
</g>
<!-- [root] provider[&quot;registry.terraform.io/hashicorp/aws&quot;] (close) -->
<g id="node14" class="node">
<title>[root] provider[&quot;registry.terraform.io/hashicorp/aws&quot;] (close)</title>
<ellipse fill="none" stroke="black" cx="1131.5" cy="-378" rx="227.46" ry="18"/>
<text text-anchor="middle" x="1131.5" y="-374.3" font-family="Times,serif" font-size="14.00">[root] provider[&quot;registry.terraform.io/hashicorp/aws&quot;] (close)</text>
</g>
<!-- [root] provider[&quot;registry.terraform.io/hashicorp/aws&quot;] (close)&#45;&gt;[root] aws_route53_record.www (expand) -->
<g id="edge16" class="edge">
<title>[root] provider[&quot;registry.terraform.io/hashicorp/aws&quot;] (close)&#45;&gt;[root] aws_route53_record.www (expand)</title>
<path fill="none" stroke="black" d="M1186.88,-360.45C1204.24,-352.37 1221.47,-340.67 1231.5,-324 1239.75,-310.29 1240.74,-301.06 1231.5,-288 1222.72,-275.59 1193.76,-264.05 1163.59,-254.93"/>
<polygon fill="black" stroke="black" points="1164.35,-251.51 1153.77,-252.06 1162.39,-258.23 1164.35,-251.51"/>
</g>
<!-- [root] provider[&quot;terraform.io/builtin/terraform&quot;] (close) -->
<g id="node15" class="node">
<title>[root] provider[&quot;terraform.io/builtin/terraform&quot;] (close)</title>
<ellipse fill="none" stroke="black" cx="1386.5" cy="-234" rx="207.16" ry="18"/>
<text text-anchor="middle" x="1386.5" y="-230.3" font-family="Times,serif" font-size="14.00">[root] provider[&quot;terraform.io/builtin/terraform&quot;] (close)</text>
</g>
<!-- [root] provider[&quot;terraform.io/builtin/terraform&quot;] (close)&#45;&gt;[root] data.terraform_remote_state.root (expand) -->
<g id="edge17" class="edge">
<title>[root] provider[&quot;terraform.io/builtin/terraform&quot;] (close)&#45;&gt;[root] data.terraform_remote_state.root (expand)</title>
<path fill="none" stroke="black" d="M1332.24,-216.57C1245.73,-190.38 1076.79,-139.23 983.44,-110.96"/>
<polygon fill="black" stroke="black" points="984.4,-107.6 973.82,-108.05 982.37,-114.3 984.4,-107.6"/>
</g>
<!-- [root] root -->
<g id="node16" class="node">
<title>[root] root</title>
<ellipse fill="none" stroke="black" cx="1131.5" cy="-450" rx="47.39" ry="18"/>
<text text-anchor="middle" x="1131.5" y="-446.3" font-family="Times,serif" font-size="14.00">[root] root</text>
</g>
<!-- [root] root&#45;&gt;[root] meta.count&#45;boundary (EachMode fixup) -->
<g id="edge18" class="edge">
<title>[root] root&#45;&gt;[root] meta.count&#45;boundary (EachMode fixup)</title>
<path fill="none" stroke="black" d="M1088.52,-442.22C1019.86,-431.4 883.54,-409.91 789.02,-395.01"/>
<polygon fill="black" stroke="black" points="789.28,-391.5 778.86,-393.4 788.19,-398.42 789.28,-391.5"/>
</g>
<!-- [root] root&#45;&gt;[root] provider[&quot;registry.terraform.io/hashicorp/aws&quot;] (close) -->
<g id="edge19" class="edge">
<title>[root] root&#45;&gt;[root] provider[&quot;registry.terraform.io/hashicorp/aws&quot;] (close)</title>
<path fill="none" stroke="black" d="M1131.5,-431.7C1131.5,-423.98 1131.5,-414.71 1131.5,-406.11"/>
<polygon fill="black" stroke="black" points="1135,-406.1 1131.5,-396.1 1128,-406.1 1135,-406.1"/>
</g>
<!-- [root] root&#45;&gt;[root] provider[&quot;terraform.io/builtin/terraform&quot;] (close) -->
<g id="edge20" class="edge">
<title>[root] root&#45;&gt;[root] provider[&quot;terraform.io/builtin/terraform&quot;] (close)</title>
<path fill="none" stroke="black" d="M1177.16,-444.94C1238.45,-438.5 1342.51,-423.72 1367.5,-396 1400.46,-359.44 1397.25,-297.68 1391.91,-262.22"/>
<polygon fill="black" stroke="black" points="1395.32,-261.41 1390.22,-252.12 1388.42,-262.56 1395.32,-261.41"/>
</g>
</g>
</svg>
